<svg xmlns="http://www.w3.org/2000/svg" xml:space="preserve" width="286" height="620"><path fill="#CF4647" fill-rule="evenodd" d="M262.6 341.1 282.9 159s-19.2 15.9-141.4 15.9C19.2 174.9 2 159.3 2 159.3l16.1 154.8c8.6-24.5 29.1-74.2 61.5-72.6 14.7.8 34.3 29 17.5 30-7.1.4-7.8-14.1-16.2-16.2-6.1-1.5-14.5 3.4-20 8.8-10.9 10.7-34.3 52.8-31.2 73.8 4 26.8 36.9-9.3 42.5-20 3.9-7.5 6.6-29.9 15.2-27.5 8.6 2.3-.8 25.4-7 45.8-7 22.9-10.7 47.1-19.4 44.3-8.8-2.8 5.5-32.3 5-37.5-8.2 7.6-23.5 26.9-42.9 17.3l10.3 99.3s26.8 21.2 107.7 21.2c80.8 0 108.6-20.9 108.6-20.9l11.4-102.6c-11.2 10.1-41.8 26.2-43.8 6.8-1.7-16 35.2-39.3 25.7-40.1-20.3 1.2-30.5 23.9-40.7 47.6-3.7 8.7-16.6 45.8-25 41.3-8.4-4.6 10.9-35.1 16.3-53.2-6.2 4.6-29.2 22.4-35.1 5.7-9.5 8-29.8 12.4-27.5-8.8-5 9-16.4 21.5-30 16.3-17.9-6.8 10.4-63.8 17.4-60.9s-1.4 15.8-3.6 20.9c-4.9 11.1-10.5 25-6.7 27.9 6.4 4.9 23.9-18.5 24.3-19 3.3-4.3 12.6-32.6 20.1-29.3 7.5 3.2-18.7 40.6-8.9 48 2 1.5 10.1-.9 15-6.2 3.2-3.4 2.1-11.1 12.7-36.4s20.1-56.9 27.4-54.5 1.3 18.6-1.3 24.6c-12.2 28.3-33.4 75.1-23.4 71.6s15.2-3.8 25-15.2c9.8-11.5 9.3-30.4 15.9-29.9 6.5.4 5.4 6.4 3.9 11 6.4-7.3 30.4-22.8 36.2-7.5 6.9 18.2-34.4 44.4-24.1 43 9.6-1.3 24.8-10.7 32.2-19.6zm-83.7-211.5c-11.4-.4-23.4-.6-35.7-.6C64.6 129 .9 138 .9 149s63.7 20 142.3 20 142.3-9 142.3-20c0-8-33.4-14.9-81.7-18.1l9.9-38.9L284 17.8l-.3-.3c.2-.1.4-.3.6-.5 1.8-2.1-.9-7.3-6-11.7S267.6-1 265.9 1c-.2.3-.4.6-.5 1l-74.6 79zm41.5 470.6c0 10.5-34.7 19-77.5 19s-77.5-8.5-77.5-19L58.8 502 40 470.9s37.5 15.3 101.3 15.3 101.9-15.6 101.9-15.6l-16.7 28.6zm-23.5-445.8c2.4-.3 6.1-.8 6.1-3.7 0-1.7-1.4-2.7-3.1-3.2l-1.2 1.9c1 .2 1.6.6 1.6.9 0 1.1-7.7 1.6-14 1.7s-14.6-.7-14.6-1.8q0-.3.9-.6l-1.2-1.9c-1.3.6-2.3 1.4-2.3 2.9 0 .8.3 1.9.9 2.4 2.3 2.1 8.1 2.2 16.2 2.1 7.9 0 10.7-.6 10.7-.7" clip-rule="evenodd"/></svg>