<svg xmlns="http://www.w3.org/2000/svg" xml:space="preserve" width="800" height="800" viewBox="0 0 297.5 297.5">
  <style>
    .tear { fill: #acbfc7; fill-opacity: 1; }
    .eye { fill-opacity: 1; }
    .eye-frame { fill-opacity: 1; }
    .frame { fill-opacity: 1; }
  </style>
  <path class="tear" d="M114.43 121.91c0 12.25-9.97 22.21-22.21 22.21-12.25 0-22.21-9.96-22.21-22.21 0-7.35 10.44-27.55 22.21-46.24 11.77 18.69 22.21 38.89 22.21 46.24" style="fill:#acbfc7"/>
  <path class="eye" d="M148.75 114.77c30.86 0 55.97 25.11 55.97 55.97 0 30.85-25.11 55.96-55.97 55.96s-55.96-25.11-55.96-55.96c0-2.26.14-4.47.4-6.66 22.82-.52 41.22-19.23 41.22-42.17 0-1.57-.19-3.29-.52-5.11 4.74-1.31 9.72-2.03 14.86-2.03m26.49 55.97c0-14.61-11.88-26.49-26.49-26.49-14.6 0-26.48 11.88-26.48 26.49 0 14.6 11.88 26.48 26.48 26.48 14.61 0 26.49-11.88 26.49-26.48" style="fill:#98d577"/>
  <path class="eye-frame" d="M148.75 144.25c14.61 0 26.49 11.88 26.49 26.49 0 14.6-11.88 26.48-26.49 26.48-14.6 0-26.48-11.88-26.48-26.48 0-14.61 11.88-26.49 26.48-26.49m6.5 26.49c0-3.59-2.92-6.5-6.5-6.5s-6.49 2.91-6.49 6.5c0 3.58 2.91 6.49 6.49 6.49s6.5-2.91 6.5-6.49"/>
  <path class="frame" d="M294.05 163.4c2.04 1.9 3.2 4.55 3.2 7.34 0 2.78-1.16 5.43-3.2 7.33-3.17 2.93-78.4 71.91-145.3 71.91-66.89 0-142.13-68.98-145.3-71.91-2.04-1.9-3.2-4.55-3.2-7.33 0-2.79 1.16-5.44 3.2-7.34 1.55-1.43 20.34-18.66 46.96-35.89-.25-1.83-.39-3.7-.39-5.6 0-19.89 28.3-61.87 33.98-70.08a9.97 9.97 0 0 1 8.22-4.31c3.28 0 6.35 1.61 8.22 4.31 3.6 5.22 16.32 24.05 25.13 42.19 7.76-1.61 15.52-2.53 23.18-2.53 66.9 0 142.13 68.98 145.3 71.91m-22.07 7.34c-11.46-9.54-33.38-26.53-58.63-39.89a75.46 75.46 0 0 1 11.35 39.89c0 14.62-4.16 28.28-11.35 39.88 25.25-13.35 47.17-30.35 58.63-39.88m-67.26 0c0-30.86-25.11-55.97-55.97-55.97-5.14 0-10.12.72-14.86 2.03.33 1.82.52 3.54.52 5.11 0 22.94-18.4 41.65-41.22 42.17-.26 2.19-.4 4.4-.4 6.66 0 30.85 25.1 55.96 55.96 55.96s55.97-25.11 55.97-55.96m-112.5-26.62c12.24 0 22.21-9.96 22.21-22.21 0-7.35-10.44-27.55-22.21-46.24-11.77 18.69-22.21 38.89-22.21 46.24 0 12.25 9.96 22.21 22.21 22.21m-8.06 66.5c-7.19-11.6-11.36-25.26-11.36-39.88 0-3.73.28-7.39.8-10.97a42.5 42.5 0 0 1-15.62-13.24c-13.79 9.18-25.21 18.18-32.45 24.21 11.46 9.53 33.38 26.53 58.63 39.88"/>
</svg>